# Blender v2.77 (sub 0) OBJ File: 'CASTELO E ARVORES2.blend'
# www.blender.org
mtllib castle2.mtl
g Plane.001
v 2.143478 0.043179 2.811220
v 2.884479 0.043179 2.811220
v 2.143478 0.043179 2.070219
v 2.884479 0.043179 2.070219
v 2.154773 0.191534 2.799924
v 2.873183 0.191534 2.799924
v 2.154773 0.191534 2.081514
v 2.873183 0.191534 2.081514
v 2.246386 0.273954 2.708312
v 2.781571 0.273954 2.708312
v 2.246386 0.273954 2.173127
v 2.781571 0.273954 2.173127
v 2.268663 1.335576 2.686035
v 2.759294 1.335576 2.686035
v 2.268663 1.335576 2.195404
v 2.759294 1.335576 2.195404
v 2.282023 1.821578 2.672675
v 2.745934 1.821578 2.672675
v 2.282023 1.821578 2.208764
v 2.745934 1.821578 2.208764
v 2.249284 1.897408 2.705414
v 2.778673 1.897408 2.705414
v 2.249284 1.897408 2.176024
v 2.778673 1.897408 2.176024
v 2.176553 1.966345 2.778144
v 2.851403 1.966345 2.778144
v 2.176553 1.966345 2.103294
v 2.851403 1.966345 2.103294
v 2.185106 2.035282 2.769592
v 2.842851 2.035282 2.769592
v 2.185106 2.035282 2.111846
v 2.842851 2.035282 2.111846
v 2.250050 2.035282 2.704648
v 2.777907 2.035282 2.704648
v 2.250050 2.035282 2.176791
v 2.777907 2.035282 2.176791
v 2.250050 2.706941 2.704648
v 2.777907 2.706941 2.704648
v 2.250050 2.706941 2.176791
v 2.777907 2.706941 2.176791
v 2.173916 2.737846 2.780781
v 2.854040 2.737846 2.780781
v 2.173916 2.737846 2.100657
v 2.854040 2.737846 2.100657
v 2.183393 2.844202 2.771304
v 2.844563 2.844202 2.771304
v 2.183393 2.844202 2.110134
v 2.844563 2.844202 2.110134
v 2.407930 2.887409 2.546767
v 2.620027 2.887409 2.546767
v 2.407930 2.887409 2.334671
v 2.620027 2.887409 2.334671
v 2.490360 3.225923 2.464337
v 2.537596 3.225923 2.464337
v 2.490360 3.225923 2.417101
v 2.537596 3.225923 2.417101
v 2.510107 4.064848 2.444591
v 2.517850 4.064848 2.444591
v 2.510107 4.064848 2.436847
v 2.517850 4.064848 2.436847
v 2.724303 2.111564 2.176791
v 2.303653 2.111564 2.176791
v 2.303653 2.630660 2.176791
v 2.724303 2.630660 2.176791
v 2.777907 2.111564 2.651044
v 2.777907 2.111564 2.230394
v 2.777907 2.630660 2.230394
v 2.777907 2.630660 2.651044
v 2.303653 2.111564 2.704648
v 2.724303 2.111564 2.704648
v 2.724303 2.630660 2.704648
v 2.303653 2.630660 2.704648
v 2.250050 2.111564 2.230394
v 2.250050 2.111564 2.651044
v 2.250050 2.630660 2.651044
v 2.250050 2.630660 2.230394
vn 0.0000 -1.0000 0.0000
vn 0.0000 0.7434 -0.6688
vn 0.0000 0.0759 -0.9971
vn 0.9971 0.0759 0.0000
vn 0.0000 0.0759 0.9971
vn -0.9971 0.0759 0.0000
vn 0.0000 0.0210 -0.9998
vn 0.6688 0.7434 0.0000
vn 0.0000 0.7434 0.6688
vn -0.6688 0.7434 0.0000
vn 0.0000 0.0275 -0.9996
vn 0.9998 0.0210 0.0000
vn 0.0000 0.0210 0.9998
vn -0.9998 0.0210 0.0000
vn 0.0000 -0.3964 -0.9181
vn 0.9996 0.0275 0.0000
vn 0.0000 0.0275 0.9996
vn -0.9996 0.0275 0.0000
vn 0.9181 -0.3964 0.0000
vn 0.0000 -0.3964 0.9181
vn -0.9181 -0.3964 0.0000
vn 0.0000 1.0000 -0.0000
vn 0.0000 -0.9266 -0.3761
vn 0.3761 -0.9266 0.0000
vn 0.0000 -0.9266 0.3761
vn -0.3761 -0.9266 0.0000
vn 0.0000 -0.7258 -0.6879
vn 0.0000 0.1231 -0.9924
vn 0.6879 -0.7258 0.0000
vn 0.0000 -0.7258 0.6879
vn -0.6879 -0.7258 0.0000
vn 0.9924 0.1231 0.0000
vn 0.0000 0.1231 0.9924
vn -0.9924 0.1231 0.0000
vn 0.0000 0.0888 -0.9961
vn 0.0000 0.9820 -0.1890
vn 0.9961 0.0888 0.0000
vn 0.0000 0.0888 0.9961
vn -0.9961 0.0888 0.0000
vn 0.1890 0.9820 0.0000
vn 0.0000 0.9820 0.1890
vn -0.1890 0.9820 0.0000
vn 0.0000 0.0000 -1.0000
vn 1.0000 -0.0000 0.0000
vn 0.0000 0.0000 1.0000
vn -1.0000 -0.0000 0.0000
vn 0.0000 0.2366 -0.9716
vn 0.0000 0.0235 -0.9997
vn 0.9716 0.2366 0.0000
vn 0.0000 0.2366 0.9716
vn -0.9716 0.2366 0.0000
vn 0.9997 0.0235 0.0000
vn 0.0000 0.0235 0.9997
vn -0.9997 0.0235 0.0000
usemtl Material.004
s off
f 3//1 2//1 1//1
f 7//2 12//2 8//2
f 3//3 8//3 4//3
f 4//4 6//4 2//4
f 2//5 5//5 1//5
f 1//6 7//6 3//6
f 11//7 16//7 12//7
f 8//8 10//8 6//8
f 6//9 9//9 5//9
f 5//10 11//10 7//10
f 15//11 20//11 16//11
f 12//12 14//12 10//12
f 10//13 13//13 9//13
f 9//14 15//14 11//14
f 19//15 24//15 20//15
f 16//16 18//16 14//16
f 14//17 17//17 13//17
f 13//18 19//18 15//18
f 20//19 22//19 18//19
f 18//20 21//20 17//20
f 17//21 23//21 19//21
f 31//22 36//22 32//22
f 32//22 34//22 30//22
f 30//22 33//22 29//22
f 29//22 35//22 31//22
f 39//23 44//23 40//23
f 40//24 42//24 38//24
f 38//25 41//25 37//25
f 37//26 43//26 39//26
f 36//1 33//1 35//1
f 3//1 4//1 2//1
f 7//2 11//2 12//2
f 3//3 7//3 8//3
f 4//4 8//4 6//4
f 2//5 6//5 5//5
f 1//6 5//6 7//6
f 11//7 15//7 16//7
f 8//8 12//8 10//8
f 6//9 10//9 9//9
f 5//10 9//10 11//10
f 15//11 19//11 20//11
f 12//12 16//12 14//12
f 10//13 14//13 13//13
f 9//14 13//14 15//14
f 19//15 23//15 24//15
f 16//16 20//16 18//16
f 14//17 18//17 17//17
f 13//18 17//18 19//18
f 20//19 24//19 22//19
f 18//20 22//20 21//20
f 17//21 21//21 23//21
f 31//22 35//22 36//22
f 32//22 36//22 34//22
f 30//22 34//22 33//22
f 29//22 33//22 35//22
f 39//23 43//23 44//23
f 40//24 44//24 42//24
f 38//25 42//25 41//25
f 37//26 41//26 43//26
f 36//1 34//1 33//1
usemtl Material
f 23//27 28//27 24//27
f 27//28 32//28 28//28
f 24//29 26//29 22//29
f 22//30 25//30 21//30
f 21//31 27//31 23//31
f 28//32 30//32 26//32
f 26//33 29//33 25//33
f 25//34 31//34 27//34
f 43//35 48//35 44//35
f 47//36 52//36 48//36
f 44//37 46//37 42//37
f 42//38 45//38 41//38
f 41//39 47//39 43//39
f 48//40 50//40 46//40
f 46//41 49//41 45//41
f 45//42 51//42 47//42
f 36//43 62//43 61//43
f 35//43 63//43 62//43
f 39//43 64//43 63//43
f 40//43 61//43 64//43
f 36//44 65//44 34//44
f 40//44 66//44 36//44
f 38//44 67//44 40//44
f 38//44 65//44 68//44
f 33//45 70//45 69//45
f 34//45 71//45 70//45
f 38//45 72//45 71//45
f 37//45 69//45 72//45
f 33//46 73//46 35//46
f 37//46 74//46 33//46
f 39//46 75//46 37//46
f 39//46 73//46 76//46
f 39//22 38//22 40//22
f 23//27 27//27 28//27
f 27//28 31//28 32//28
f 24//29 28//29 26//29
f 22//30 26//30 25//30
f 21//31 25//31 27//31
f 28//32 32//32 30//32
f 26//33 30//33 29//33
f 25//34 29//34 31//34
f 43//35 47//35 48//35
f 47//36 51//36 52//36
f 44//37 48//37 46//37
f 42//38 46//38 45//38
f 41//39 45//39 47//39
f 48//40 52//40 50//40
f 46//41 50//41 49//41
f 45//42 49//42 51//42
f 36//43 35//43 62//43
f 35//43 39//43 63//43
f 39//43 40//43 64//43
f 40//43 36//43 61//43
f 36//44 66//44 65//44
f 40//44 67//44 66//44
f 38//44 68//44 67//44
f 38//44 34//44 65//44
f 33//45 34//45 70//45
f 34//45 38//45 71//45
f 38//45 37//45 72//45
f 37//45 33//45 69//45
f 33//46 74//46 73//46
f 37//46 75//46 74//46
f 39//46 76//46 75//46
f 39//46 35//46 73//46
f 39//22 37//22 38//22
usemtl Material.003
f 51//47 56//47 52//47
f 55//48 60//48 56//48
f 52//49 54//49 50//49
f 50//50 53//50 49//50
f 49//51 55//51 51//51
f 58//22 59//22 57//22
f 56//52 58//52 54//52
f 54//53 57//53 53//53
f 53//54 59//54 55//54
f 51//47 55//47 56//47
f 55//48 59//48 60//48
f 52//49 56//49 54//49
f 50//50 54//50 53//50
f 49//51 53//51 55//51
f 58//22 60//22 59//22
f 56//52 60//52 58//52
f 54//53 58//53 57//53
f 53//54 57//54 59//54
